<svg width="99" height="32" viewBox="0 0 99 32" fill="none" xmlns="http://www.w3.org/2000/svg">
<path d="M41.2569 5.62486V7.80334C41.5861 7.45479 42.0024 7.16432 42.5059 6.93195C43.0094 6.68022 43.6193 6.55435 44.3358 6.55435C44.9942 6.55435 45.6139 6.68022 46.1948 6.93195C46.7951 7.18369 47.3179 7.59034 47.7633 8.1519C48.228 8.6941 48.596 9.42026 48.8671 10.3304C49.1382 11.2405 49.2737 12.3443 49.2737 13.6417C49.2737 14.5712 49.1866 15.5006 49.0123 16.4301C48.8574 17.3596 48.5766 18.1923 48.1699 18.9281C47.7633 19.664 47.2114 20.2642 46.5143 20.729C45.8365 21.1744 44.9845 21.3971 43.9582 21.3971C43.2224 21.3971 42.6414 21.3002 42.2154 21.1066C41.7894 20.8936 41.4699 20.6515 41.2569 20.3804V27.4387L37.0742 28.4844V5.62486H41.2569ZM42.564 18.87C43.0675 18.87 43.4935 18.7054 43.842 18.3762C44.1906 18.0277 44.4617 17.5823 44.6553 17.0401C44.8683 16.4979 45.0136 15.8976 45.091 15.2392C45.1878 14.5615 45.2363 13.8934 45.2363 13.235C45.2363 12.17 45.1394 11.3276 44.9458 10.708C44.7715 10.0883 44.5585 9.63327 44.3068 9.3428C44.055 9.03297 43.8033 8.83933 43.5516 8.76187C43.3192 8.68442 43.1352 8.64569 42.9997 8.64569C42.6511 8.64569 42.3123 8.77156 41.9831 9.02329C41.6539 9.25566 41.4118 9.6139 41.2569 10.098V18.202C41.3537 18.3569 41.5086 18.5118 41.7216 18.6667C41.9346 18.8022 42.2154 18.87 42.564 18.87Z" fill="white"/>
<path d="M68.6992 5.79914C69.1833 7.65811 69.6093 9.17821 69.9772 10.3594C70.3451 11.5213 70.655 12.4992 70.9067 13.2931C71.1778 14.087 71.3811 14.7842 71.5167 15.3845C71.6716 15.9847 71.749 16.6528 71.749 17.3887C72.0782 17.1756 72.3977 16.953 72.7076 16.7206C73.0174 16.4689 73.2788 16.2365 73.4918 16.0235H74.7118C74.1889 16.8174 73.6371 17.4758 73.0561 17.9986C72.4752 18.5021 71.9136 18.9475 71.3714 19.3348C71.0229 20.09 70.4904 20.6225 69.7739 20.9323C69.0574 21.2421 68.3119 21.3971 67.5373 21.3971C66.6659 21.3971 65.9204 21.2809 65.3007 21.0485C64.6811 20.7968 64.1679 20.4676 63.7613 20.0609C63.374 19.6349 63.0835 19.1508 62.8899 18.6086C62.6962 18.0664 62.5994 17.4952 62.5994 16.8949C62.5994 16.2365 62.7543 15.7233 63.0642 15.3554C63.3934 14.9681 63.771 14.7745 64.197 14.7745C65.3782 14.7745 65.9688 15.2489 65.9688 16.1978C65.9688 16.5076 65.8623 16.769 65.6493 16.982C65.4363 17.195 65.1652 17.3015 64.836 17.3015C64.6811 17.3015 64.5165 17.2822 64.3422 17.2434C64.1873 17.1853 64.0614 17.0788 63.9646 16.9239C64.1195 17.6017 64.3713 18.1342 64.7198 18.5215C65.0877 18.9087 65.5525 19.1024 66.114 19.1024C66.5981 19.1024 66.9564 18.9862 67.1888 18.7538C67.4211 18.5021 67.5373 18.0761 67.5373 17.4758C67.5373 16.8368 67.4792 16.2655 67.363 15.7621C67.2662 15.2392 67.1113 14.668 66.8983 14.0483C66.6853 13.4287 66.4239 12.6928 66.114 11.8408C65.8042 10.9694 65.4557 9.84627 65.0684 8.47141C64.1002 10.5434 62.8221 11.8698 61.2342 12.4508C61.2342 12.6057 61.2342 12.7606 61.2342 12.9155C61.2536 13.0511 61.2633 13.1963 61.2633 13.3512C61.2633 14.4743 61.1665 15.5297 60.9728 16.5173C60.7792 17.4855 60.45 18.3375 59.9852 19.0733C59.5399 19.7898 58.9589 20.3611 58.2425 20.7871C57.526 21.1937 56.6449 21.3971 55.5992 21.3971C54.8828 21.3971 54.1953 21.2906 53.5369 21.0775C52.8979 20.8452 52.3267 20.4773 51.8232 19.9738C51.3197 19.4509 50.9131 18.7732 50.6033 17.9405C50.3128 17.0885 50.1676 16.0525 50.1676 14.8326C50.1676 13.9999 50.2547 13.1092 50.429 12.1603C50.6033 11.1921 50.9228 10.2917 51.3875 9.45899C51.8523 8.62632 52.4816 7.93889 53.2755 7.39669C54.0888 6.83513 55.1248 6.55435 56.3835 6.55435C57.6809 6.55435 58.7169 6.9029 59.4915 7.60002C60.2854 8.29713 60.8179 9.42026 61.089 10.9694C61.7668 10.8145 62.3767 10.3497 62.9189 9.57517C63.4805 8.78124 64.013 7.7162 64.5165 6.38007L68.6992 5.79914ZM56.4125 18.6667C56.8192 18.6667 57.1677 18.5311 57.4582 18.26C57.768 17.9696 58.0198 17.5823 58.2134 17.0982C58.4071 16.5947 58.5426 16.0041 58.6201 15.3264C58.7169 14.6486 58.7653 13.9128 58.7653 13.1188V12.7412C57.9907 12.567 57.6034 11.9957 57.6034 11.0275C57.6034 10.4078 57.8552 10.0012 58.3586 9.80754C58.1456 9.18789 57.8842 8.78124 57.5744 8.58759C57.2839 8.39395 57.0322 8.29713 56.8192 8.29713C56.3932 8.29713 56.0253 8.50046 55.7154 8.90711C55.425 9.29439 55.1829 9.79786 54.9893 10.4175C54.7956 11.0178 54.6504 11.6859 54.5536 12.4217C54.4761 13.1576 54.4374 13.8644 54.4374 14.5421C54.4374 15.4135 54.4955 16.1203 54.6117 16.6625C54.7472 17.2047 54.9118 17.621 55.1054 17.9115C55.2991 18.202 55.5121 18.4053 55.7445 18.5215C55.9768 18.6183 56.1995 18.6667 56.4125 18.6667Z" fill="white"/>
<path d="M77.338 2.11025V6.69958H79.1098V7.86143H77.338V16.5754C77.338 17.3887 77.4445 17.9309 77.6575 18.202C77.8899 18.4537 78.2868 18.5796 78.8484 18.5796C79.41 18.5796 79.8747 18.3375 80.2426 17.8534C80.6299 17.3693 80.8526 16.7593 80.9107 16.0235H82.1306C81.9757 17.2047 81.7046 18.1535 81.3173 18.87C80.93 19.5671 80.4943 20.1093 80.0102 20.4966C79.5261 20.8645 79.0323 21.1066 78.5289 21.2228C78.0254 21.339 77.58 21.3971 77.1927 21.3971C75.7017 21.3971 74.656 20.9904 74.0557 20.1771C73.4554 19.3444 73.1553 18.2504 73.1553 16.8949V7.86143H72.2258V6.69958H73.1553V2.69118L77.338 2.11025Z" fill="white"/>
<path d="M80.5796 2.83641C80.5796 2.19739 80.8023 1.65519 81.2477 1.20981C81.693 0.745067 82.2352 0.512695 82.8743 0.512695C83.5133 0.512695 84.0555 0.745067 84.5009 1.20981C84.9656 1.65519 85.198 2.19739 85.198 2.83641C85.198 3.47543 84.9656 4.01763 84.5009 4.46301C84.0555 4.90838 83.5133 5.13107 82.8743 5.13107C82.2352 5.13107 81.693 4.90838 81.2477 4.46301C80.8023 4.01763 80.5796 3.47543 80.5796 2.83641ZM85.0818 6.69958V16.5754C85.0818 17.3887 85.1883 17.9309 85.4013 18.202C85.6337 18.4537 86.0306 18.5796 86.5922 18.5796C86.8439 18.5796 87.0279 18.5602 87.1441 18.5215C87.2796 18.4827 87.3958 18.444 87.4926 18.4053C87.512 18.5021 87.5217 18.5989 87.5217 18.6957C87.5217 18.7926 87.5217 18.8894 87.5217 18.9862C87.5217 19.4703 87.4345 19.8673 87.2603 20.1771C87.1054 20.4869 86.8923 20.7387 86.6212 20.9323C86.3695 21.1066 86.0887 21.2228 85.7789 21.2809C85.4884 21.3583 85.2077 21.3971 84.9366 21.3971C83.4455 21.3971 82.3998 20.9904 81.7995 20.1771C81.1993 19.3444 80.8991 18.2504 80.8991 16.8949V6.69958H85.0818ZM96.2066 18.5796C95.9742 18.5602 95.7999 18.4827 95.6837 18.3472C95.5675 18.1923 95.5094 18.018 95.5094 17.8243C95.5094 17.5726 95.616 17.3306 95.829 17.0982C96.042 16.8465 96.3905 16.7206 96.8746 16.7206C97.4168 16.7206 97.8235 16.9045 98.0946 17.2725C98.3657 17.621 98.5012 18.0374 98.5012 18.5215C98.5012 18.8313 98.4431 19.1508 98.3269 19.48C98.2108 19.7898 98.0268 20.0803 97.7751 20.3514C97.5233 20.6031 97.2135 20.8161 96.8456 20.9904C96.4777 21.1453 96.0516 21.2228 95.5675 21.2228H87.5507L93.2438 8.26809H91.0944C90.6684 8.26809 90.3101 8.29713 90.0197 8.35522C89.7486 8.39395 89.613 8.50046 89.613 8.67473C89.613 8.75219 89.6324 8.79092 89.6711 8.79092C89.7292 8.79092 89.7873 8.81028 89.8454 8.84901C89.9229 8.88774 89.9809 8.9652 90.0197 9.08138C90.0778 9.19757 90.1068 9.40089 90.1068 9.69136C90.1068 10.1174 89.9713 10.4272 89.7002 10.6208C89.4484 10.8145 89.158 10.9113 88.8288 10.9113C88.4415 10.9113 88.0639 10.7854 87.696 10.5337C87.3474 10.2626 87.1731 9.85595 87.1731 9.31376C87.1731 9.02329 87.2312 8.73283 87.3474 8.44236C87.4636 8.13253 87.6379 7.85175 87.8702 7.60002C88.1026 7.32892 88.3931 7.11591 88.7416 6.961C89.0902 6.78672 89.4968 6.69958 89.9616 6.69958H97.9493L92.4015 18.9862C92.5177 18.9862 92.6823 18.9959 92.8953 19.0153C93.1083 19.0346 93.331 19.054 93.5633 19.0733C93.8151 19.0927 94.0571 19.1121 94.2895 19.1314C94.5412 19.1508 94.7639 19.1605 94.9576 19.1605C95.3061 19.1605 95.5966 19.1218 95.829 19.0443C96.0807 18.9668 96.2066 18.8119 96.2066 18.5796Z" fill="white"/>
<path d="M5.40198 4.61719C5.42419 4.97578 5.45549 5.38033 5.49123 5.84208L6.7816 22.5158C6.92583 24.3794 6.99794 25.3112 7.41571 25.9949C7.78319 26.5963 8.33163 27.066 8.98244 27.3365C9.72231 27.6441 10.6541 27.572 12.5177 27.4278L25.2883 26.4395C26.4965 26.346 27.313 26.2828 27.9242 26.1361C27.7192 26.6173 27.403 27.0461 26.9984 27.3854C26.3845 27.9003 25.4738 28.1104 23.6525 28.5305L11.1715 31.4095C9.35013 31.8296 8.43946 32.0397 7.66203 31.8457C6.97819 31.675 6.36592 31.2923 5.91298 30.7523C5.39806 30.1384 5.188 29.2277 4.76787 27.4064L1.009 11.1107C0.588871 9.28938 0.378808 8.37871 0.5728 7.60128C0.743439 6.91744 1.12619 6.30517 1.66619 5.85223C2.28009 5.33731 3.19077 5.12724 5.01212 4.70712L5.40198 4.61719Z" fill="#612BD3"/>
<path d="M18.5984 14.0876C18.3641 14.3459 18.0645 14.4891 17.6994 14.5173C17.4466 14.5369 17.2392 14.5035 17.0771 14.4171C16.914 14.3167 16.793 14.2131 16.7141 14.1062L16.2598 8.22966C16.3449 7.86993 16.5004 7.59658 16.7261 7.40963C16.9507 7.20863 17.1893 7.09836 17.4421 7.07881C17.5404 7.07121 17.676 7.08898 17.8488 7.13212C18.0357 7.17418 18.2291 7.30048 18.429 7.51104C18.6278 7.70755 18.8078 8.02559 18.9689 8.46516C19.1441 8.90364 19.2615 9.50903 19.3212 10.2813C19.3581 10.7588 19.3605 11.2459 19.3283 11.7428C19.309 12.2246 19.2374 12.668 19.1133 13.0731C19.0033 13.4771 18.8317 13.8153 18.5984 14.0876Z" fill="white"/>
<path fill-rule="evenodd" clip-rule="evenodd" d="M6.45565 5.09217C6.35721 3.82014 6.30799 3.18412 6.51794 2.67911C6.70262 2.23489 7.02319 1.86054 7.43371 1.60971C7.9004 1.32456 8.53642 1.27534 9.80845 1.1769L23.9232 0.0845554C25.1952 -0.0138868 25.8313 -0.0631079 26.3363 0.146846C26.7805 0.331527 27.1548 0.652097 27.4057 1.06261C27.6908 1.5293 27.74 2.16533 27.8385 3.43735L29.2327 21.4533C29.3312 22.7254 29.3804 23.3614 29.1705 23.8664C28.9858 24.3106 28.6652 24.6849 28.2547 24.9358C27.788 25.2209 27.152 25.2702 25.8799 25.3686L11.7651 26.4609C10.4932 26.5594 9.85712 26.6086 9.35212 26.3986C8.9079 26.214 8.53355 25.8934 8.28272 25.4829C7.99757 25.0162 7.94835 24.3802 7.8499 23.1081L6.45565 5.09217ZM16.1311 6.5657L16.009 4.986L12.9759 5.22049L14.2575 21.7969L17.2319 20.8041L16.8362 15.6859C17.0059 15.8705 17.2511 16.0281 17.572 16.1587C17.8918 16.2752 18.3185 16.3129 18.8521 16.2716C19.5963 16.2141 20.2016 16.0048 20.6681 15.6439C21.1476 15.2678 21.5141 14.8015 21.7677 14.2452C22.0214 13.6888 22.1783 13.0692 22.2385 12.3865C22.3128 11.7028 22.3238 11.0239 22.2717 10.3499C22.199 9.40906 22.0388 8.61627 21.7912 7.97151C21.5436 7.32674 21.2361 6.8208 20.8687 6.45368C20.5143 6.07144 20.1123 5.80587 19.6629 5.65699C19.2275 5.50701 18.7712 5.45048 18.2937 5.48739C17.7742 5.52756 17.3389 5.65303 16.988 5.8638C16.6359 6.06053 16.3503 6.29449 16.1311 6.5657Z" fill="white"/>
</svg>
